# xmcd CD database file
#
# Track frame offsets:
#	150
#	19696
#	49790
#	73077
#	100255
#	121516
#	144058
#	166329
#	188047
#	205418
#	224390
#	250475
#	272126
#	291915
#	316612
#	330408
#
# Disc length: 4651 seconds
#
# Revision: 2
# Processed by: cddbd v1.5.2PL0 Copyright (c) Steve Scherf et al.
# Submitted via: CDex 1.70beta2
#
DISCID=e5122910
DTITLE=Keiko Lee - Voices III
DYEAR=2011
DGENRE=Pop
TTITLE0=One Hundred Ways
TTITLE1=I Can't Make You Love Me [2011 refine version]
TTITLE2=I Can't Help It
TTITLE3=In The Morning Light （朝陽の中で微笑んで）
TTITLE4=If I Should Lose You
TTITLE5=Fever [2011 refine version]
TTITLE6=I Didn't Know What Time It Was
TTITLE7=That's All
TTITLE8=Tell Me A Bedtime Story
TTITLE9=Fragile [2011 refine version]
TTITLE10=A House Is Not A Home
TTITLE11=The Lady In My Life [2011 refine version]
TTITLE12=Don't Know Why
TTITLE13=Bridge Over Troubled Water
TTITLE14=We Will Rock You
TTITLE15=The Very Thought Of You
EXTD=YEAR: 2011
EXTT0=
EXTT1=
EXTT2=
EXTT3=
EXTT4=
EXTT5=
EXTT6=
EXTT7=
EXTT8=
EXTT9=
EXTT10=
EXTT11=
EXTT12=
EXTT13=
EXTT14=
EXTT15=
PLAYORDER=
